<!-- Generated by IcoMoon.io -->
<svg version="1.1" xmlns="http://www.w3.org/2000/svg" viewBox="0 0 32 32">
<title>logo</title>
<path fill="#d4b783" d="M26.104 21.48c-0.653-0.097-1.278-0.336-1.839-0.705-0.666-0.439-1.208-1.049-1.568-1.766-0.671-1.338-0.633-2.915 0.058-4.209-1.154-0.92-1.804-2.357-1.717-3.844 0.088-1.494 0.908-2.84 2.154-3.616-0.422-1.069-0.426-2.256-0.008-3.327-2.73-1.674-5.82-2.325-8.806-2.050 0.185 0.835 0.034 1.725-0.456 2.47-0.628 0.953-1.678 1.464-2.743 1.449-0.594-0.008-1.192-0.179-1.723-0.529-0.374-0.247-0.689-0.565-0.928-0.933-0.003 0.001-0.006 0.001-0.008 0.002-0.355 0.266-0.7 0.55-1.032 0.851-0.886 0.802-1.687 1.727-2.374 2.77-4.388 6.664-2.536 15.655 4.128 20.042 2.636 1.736 5.636 2.494 8.571 2.365 0.067-0.010 0.147-0.014 0.236-0.014 1.111-0.067 2.212-0.258 3.278-0.575-0.367-0.953-0.271-2.053 0.311-2.938 0.386-0.587 0.933-1.005 1.544-1.237 0.9-0.342 1.939-0.278 2.816 0.253 0.035 0.020 0.070 0.041 0.106 0.065 0.026 0.017 0.051 0.035 0.076 0.053 0.439-0.471 0.852-0.977 1.233-1.517-0.807-0.819-1.273-1.911-1.308-3.060zM6.988 20.891c-0.839-0.553-1.336-1.433-1.432-2.363-0.089-0.732 0.069-1.498 0.506-2.161 0.978-1.485 2.981-1.897 4.466-0.92 0.839 0.553 1.336 1.433 1.432 2.363 0.089 0.732-0.069 1.498-0.506 2.161-0.978 1.485-2.981 1.897-4.466 0.92zM15.149 12.37c-0.839-0.553-1.336-1.433-1.432-2.363-0.089-0.732 0.069-1.498 0.506-2.161 0.978-1.485 2.981-1.897 4.466-0.92 0.839 0.553 1.336 1.433 1.432 2.363 0.089 0.732-0.069 1.498-0.506 2.161-0.978 1.485-2.981 1.897-4.466 0.92zM15.176 24.441c-1.078-0.71-1.716-1.84-1.841-3.034-0.112-0.937 0.093-1.917 0.652-2.766 1.257-1.909 3.833-2.439 5.742-1.183 1.078 0.71 1.716 1.84 1.841 3.034 0.112 0.937-0.093 1.917-0.652 2.766-1.257 1.909-3.833 2.439-5.742 1.183z"></path>
<path fill="#89634a" d="M15.987 11.030c0.778 0.512 1.827 0.296 2.339-0.482s0.296-1.827-0.482-2.339c-0.778-0.512-1.827-0.296-2.339 0.482s-0.296 1.827 0.482 2.339z"></path>
<path fill="#89634a" d="M7.825 19.552c0.778 0.512 1.827 0.296 2.339-0.482s0.296-1.827-0.482-2.339c-0.778-0.512-1.827-0.296-2.339 0.482s-0.296 1.827 0.482 2.339z"></path>
<path fill="#89634a" d="M12.64 3.588c0.274-0.417 0.345-0.921 0.216-1.383-1.060 0.333-2.085 0.788-3.050 1.359 0.127 0.2 0.294 0.373 0.495 0.506 0.778 0.512 1.827 0.296 2.339-0.482z"></path>
<path fill="#89634a" d="M22.92 27.767c-0.313 0.476-0.357 1.072-0.146 1.58 1.028-0.428 2.011-0.976 2.926-1.638-0.118-0.165-0.266-0.308-0.441-0.423-0.778-0.512-1.827-0.296-2.339 0.482z"></path>
<path fill="#89634a" d="M16.013 23.102c1.202 0.791 2.824 0.457 3.615-0.745s0.457-2.824-0.745-3.615-2.824-0.457-3.615 0.745c-0.791 1.202-0.457 2.824 0.745 3.615z"></path>
<path fill="#89634a" d="M20.121 9.29c0.074 0.714-0.088 1.458-0.513 2.103-0.978 1.485-2.981 1.897-4.466 0.92-0.822-0.541-1.315-1.397-1.425-2.305 0.097 0.929 0.593 1.81 1.432 2.363 1.485 0.978 3.488 0.565 4.466-0.92 0.436-0.663 0.595-1.429 0.506-2.161z"></path>
<path fill="#89634a" d="M11.446 19.914c-0.978 1.485-2.981 1.897-4.466 0.92-0.822-0.541-1.315-1.397-1.425-2.305 0.097 0.929 0.593 1.81 1.432 2.363 1.485 0.978 3.488 0.565 4.466-0.92 0.436-0.663 0.595-1.429 0.506-2.161 0.074 0.714-0.088 1.458-0.513 2.103z"></path>
<path fill="#89634a" d="M20.911 23.201c-1.257 1.909-3.833 2.439-5.742 1.183-1.061-0.698-1.695-1.804-1.834-2.976 0.125 1.193 0.763 2.324 1.841 3.034 1.909 1.257 4.485 0.727 5.742-1.183 0.559-0.848 0.763-1.828 0.652-2.766 0.097 0.92-0.112 1.877-0.659 2.708z"></path>
<path fill="#252525" d="M15.143 12.313c1.485 0.978 3.488 0.565 4.466-0.92 0.425-0.645 0.587-1.389 0.513-2.103-0.097-0.929-0.593-1.81-1.432-2.363-1.485-0.978-3.488-0.565-4.466 0.92-0.436 0.663-0.595 1.429-0.506 2.161 0.111 0.908 0.603 1.764 1.425 2.305zM17.844 8.21c0.778 0.512 0.994 1.561 0.482 2.339s-1.561 0.994-2.339 0.482c-0.778-0.512-0.994-1.561-0.482-2.339s1.561-0.994 2.339-0.482z"></path>
<path fill="#252525" d="M6.981 20.834c1.485 0.978 3.488 0.565 4.466-0.92 0.425-0.645 0.587-1.389 0.513-2.103-0.097-0.929-0.593-1.81-1.432-2.363-1.485-0.978-3.488-0.565-4.466 0.92-0.436 0.663-0.595 1.429-0.506 2.161 0.111 0.908 0.603 1.764 1.425 2.305zM9.682 16.731c0.778 0.512 0.994 1.561 0.482 2.339s-1.561 0.994-2.339 0.482c-0.778-0.512-0.994-1.561-0.482-2.339s1.561-0.994 2.339-0.482z"></path>
<path fill="#252525" d="M30.645 24.679l0.034-0.054c0.219-0.341 0.134-0.794-0.192-1.033-0.922-0.676-1.389-1.8-1.218-2.934 0.034-0.225-0.034-0.454-0.185-0.624s-0.371-0.265-0.598-0.257c-0.63 0.020-1.267-0.16-1.794-0.507-0.446-0.294-0.81-0.704-1.052-1.185-0.535-1.066-0.399-2.359 0.345-3.293 0.142-0.178 0.198-0.41 0.152-0.633s-0.19-0.415-0.389-0.522c-0.081-0.043-0.162-0.091-0.239-0.142-0.915-0.603-1.444-1.655-1.38-2.746 0.070-1.191 0.834-2.242 1.945-2.679 0.212-0.083 0.376-0.256 0.448-0.473s0.044-0.453-0.076-0.647c-0.604-0.973-0.62-2.19-0.041-3.175 0.205-0.349 0.104-0.798-0.231-1.025l-0.052-0.035c-0.040-0.028-0.081-0.055-0.122-0.082-7.371-4.853-17.316-2.805-22.169 4.566s-2.805 17.316 4.566 22.169c7.371 4.853 17.316 2.805 22.169-4.566 0.027-0.041 0.053-0.082 0.079-0.123zM12.856 2.205c0.13 0.462 0.059 0.966-0.216 1.383-0.512 0.778-1.561 0.994-2.339 0.482-0.202-0.133-0.369-0.306-0.495-0.506 0.965-0.572 1.99-1.027 3.050-1.359zM22.774 29.347c-0.211-0.508-0.167-1.104 0.146-1.58 0.512-0.778 1.561-0.994 2.339-0.482 0.175 0.115 0.322 0.258 0.441 0.423-0.915 0.663-1.898 1.211-2.926 1.638zM26.894 26.743c-0.2-0.263-0.442-0.495-0.715-0.687-0.025-0.018-0.051-0.036-0.077-0.053-0.035-0.023-0.070-0.044-0.106-0.065-0.877-0.531-1.916-0.595-2.816-0.253-0.611 0.232-1.158 0.651-1.544 1.237-0.582 0.884-0.678 1.985-0.311 2.938-1.066 0.317-2.167 0.508-3.278 0.575-0.079 0.005-0.157 0.010-0.236 0.014-2.935 0.129-5.935-0.629-8.57-2.365-6.664-4.388-8.515-13.378-4.128-20.042 0.687-1.044 1.488-1.968 2.374-2.77 0.333-0.301 0.677-0.585 1.032-0.851 0.002-0.002 0.004-0.003 0.006-0.005 0.001 0.001 0.001 0.002 0.002 0.003 0.239 0.368 0.554 0.686 0.928 0.933 0.532 0.35 1.13 0.521 1.723 0.529 1.065 0.015 2.115-0.496 2.743-1.449 0.49-0.745 0.642-1.635 0.456-2.47-0.010-0.047-0.021-0.094-0.034-0.141 3.468-0.698 7.191-0.137 10.415 1.84-0.421 1.080-0.417 2.276 0.008 3.353-1.256 0.781-2.082 2.138-2.171 3.643-0.088 1.498 0.567 2.946 1.73 3.873-0.697 1.305-0.735 2.893-0.059 4.241 0.362 0.722 0.909 1.337 1.58 1.779 0.566 0.372 1.195 0.613 1.853 0.711 0.035 1.158 0.505 2.257 1.318 3.083-0.629 0.892-1.344 1.693-2.125 2.397z"></path>
<path fill="#252525" d="M15.169 24.384c1.909 1.257 4.485 0.727 5.742-1.183 0.547-0.831 0.755-1.788 0.659-2.708-0.125-1.193-0.763-2.324-1.841-3.034-1.909-1.257-4.485-0.727-5.742 1.183-0.559 0.848-0.763 1.828-0.652 2.766 0.14 1.172 0.774 2.278 1.834 2.976zM18.884 18.742c1.202 0.791 1.536 2.413 0.745 3.615s-2.413 1.536-3.615 0.745c-1.202-0.791-1.536-2.413-0.745-3.615s2.413-1.536 3.615-0.745z"></path>
</svg>
